<svg width="28" height="28" viewBox="0 0 28 28" fill="none" xmlns="http://www.w3.org/2000/svg">
<g clip-path="url(#clip0_6992_3184)">
<path d="M12.0275 11.4732V14.2811H8.75732V18.0885H12.0275V27.5657C12.667 27.6561 13.3198 27.7059 13.9843 27.7059C14.6479 27.7059 15.2998 27.6561 15.9387 27.5657V18.0885H19.2006L19.6889 14.2811H15.9387V11.8503C15.9387 10.7479 16.2433 9.9967 17.8157 9.9967L19.8211 9.99578V6.59041C19.4744 6.544 18.2838 6.44043 16.8989 6.44043C14.0071 6.44074 12.0275 8.21472 12.0275 11.4732Z" fill="#747373"/>
<path d="M13.8749 27.2059C6.51263 27.2059 0.544434 21.2377 0.544434 13.8754C0.544434 6.51312 6.51263 0.544922 13.8749 0.544922C21.2372 0.544922 27.2054 6.51312 27.2054 13.8754C27.2054 21.2377 21.2372 27.2059 13.8749 27.2059Z" stroke="#747373"/>
</g>
<defs>
<clipPath id="clip0_6992_3184">
<rect width="28" height="28" fill="white"/>
</clipPath>
</defs>
</svg>
