<svg width="28" height="28" viewBox="0 0 28 28" fill="none" xmlns="http://www.w3.org/2000/svg">
<g clip-path="url(#clip0_6992_3196)">
<path d="M16.7927 21.2797H11.2074C8.73297 21.2797 6.71997 19.2667 6.71997 16.7925V11.2071C6.71997 8.73273 8.73297 6.71973 11.2074 6.71973H16.7927C19.267 6.71973 21.28 8.73273 21.28 11.2071V16.7925C21.28 19.2667 19.267 21.2797 16.7927 21.2797ZM11.2074 7.85217C9.35743 7.85217 7.85242 9.35719 7.85242 11.2071V16.7925C7.85242 18.6423 9.35743 20.1473 11.2074 20.1473H16.7927C18.6425 20.1473 20.1475 18.6423 20.1475 16.7925V11.2071C20.1475 9.35719 18.6425 7.85217 16.7927 7.85217H11.2074Z" fill="#747373"/>
<path d="M14 17.9201C11.8384 17.9201 10.08 16.1615 10.08 14.0001C10.08 11.8387 11.8386 10.0801 14 10.0801C16.1614 10.0801 17.92 11.8387 17.92 14.0001C17.92 16.1615 16.1615 17.9201 14 17.9201ZM14 11.1683C12.4385 11.1683 11.1682 12.4386 11.1682 14.0001C11.1682 15.5615 12.4385 16.8318 14 16.8318C15.5614 16.8318 16.8317 15.5615 16.8317 14.0001C16.8319 12.4386 15.5616 11.1683 14 11.1683Z" fill="#747373"/>
<path d="M17.92 11.2C18.5386 11.2 19.04 10.6985 19.04 10.08C19.04 9.4614 18.5386 8.95996 17.92 8.95996C17.3015 8.95996 16.8 9.4614 16.8 10.08C16.8 10.6985 17.3015 11.2 17.92 11.2Z" fill="#747373"/>
<path d="M13.8749 27.2059C6.51263 27.2059 0.544434 21.2377 0.544434 13.8754C0.544434 6.51312 6.51263 0.544922 13.8749 0.544922C21.2372 0.544922 27.2054 6.51312 27.2054 13.8754C27.2054 21.2377 21.2372 27.2059 13.8749 27.2059Z" stroke="#747373"/>
</g>
<defs>
<clipPath id="clip0_6992_3196">
<rect width="28" height="28" fill="white"/>
</clipPath>
</defs>
</svg>
