<svg width="144" height="20" viewBox="0 0 144 20" fill="none" xmlns="http://www.w3.org/2000/svg">
<path d="M30.808 0.0916138C30.7769 0.144785 28.849 4.61869 26.5401 10.0269L22.3267 19.8634L24.278 19.8862C25.3585 19.8938 26.2681 19.8938 26.3147 19.871C26.3613 19.8558 26.8044 18.8987 27.2942 17.7442L28.1804 15.6477L33.5055 15.6705L38.8305 15.6857L39.7012 17.7746L40.5718 19.8634L42.6008 19.8862L44.6375 19.9014L44.5909 19.7343C44.5676 19.6355 42.7096 15.1692 40.4708 9.799L36.3973 0.0384445L33.6376 0.0156574C31.4765 0.000465393 30.8624 0.0232525 30.808 0.0916138ZM35.5267 7.77093L37.439 12.3436L33.5521 12.3664C31.4221 12.374 29.6574 12.3664 29.6419 12.3512C29.5952 12.3132 33.5366 3.12232 33.5832 3.1679C33.6065 3.18309 34.4772 5.25673 35.5267 7.77093Z" fill="#FFCB02"/>
<path d="M45.4146 0.319489C45.5545 0.49419 47.5524 2.96281 49.8456 5.80363L54.0202 10.9763L54.028 15.4351V19.9014H55.9714H57.9149V15.4351L57.9226 10.9763L62.2371 5.62133C64.6081 2.67418 66.5826 0.205551 66.6293 0.129593C66.6992 0.00806046 66.5671 0.000465393 64.3438 0.000465393H61.9883L59.0032 3.71479C57.3551 5.76565 55.9947 7.42153 55.9714 7.39874C55.9481 7.37595 54.6032 5.71248 52.9707 3.6996L50.0167 0.0384445L47.5835 0.0156574L45.1503 0.000465393L45.4146 0.319489Z" fill="#FFCB02"/>
<path d="M78.5155 0.0830727C76.1911 0.341328 74.1466 1.30599 72.4908 2.92389C70.6873 4.67851 69.7544 6.60783 69.4901 9.12203C69.3035 10.8767 69.6922 12.8591 70.5629 14.5302C71.2237 15.8063 72.6774 17.4242 73.8512 18.1914C76.4476 19.8852 79.5494 20.3714 82.4412 19.5586C84.5557 18.9585 86.3359 17.7888 87.6497 16.1405C88.085 15.5936 88.5437 14.9024 88.5437 14.7961C88.5437 14.7581 86.6391 13.6719 86.5691 13.6719C86.5536 13.6719 86.3903 13.8998 86.2038 14.1808C86.0172 14.4694 85.5896 14.9784 85.2554 15.3202C84.2137 16.3836 83.0709 17.0444 81.5706 17.447C80.8943 17.6369 80.6766 17.6597 79.6038 17.6521C78.6165 17.6521 78.2745 17.6217 77.707 17.485C76.9529 17.3027 75.8024 16.8013 75.1961 16.3988C73.6102 15.343 72.4286 13.7099 71.9388 11.8869C71.76 11.2261 71.7289 10.9754 71.7289 9.98795C71.7289 9.0005 71.76 8.74984 71.9388 8.08901C72.5374 5.87864 74.0455 4.07844 76.1445 3.06821C77.3805 2.47574 78.1035 2.32382 79.6038 2.32382C80.6766 2.31623 80.8943 2.33901 81.5628 2.52131C82.519 2.77957 83.1875 3.0834 83.9882 3.59991C84.7112 4.07085 85.714 5.0583 86.1727 5.74192L86.4836 6.21285L87.5098 5.67355L88.5359 5.12666L88.3338 4.78485C88.225 4.59496 87.914 4.16959 87.6497 3.83538C85.5041 1.13888 81.9826 -0.304312 78.5155 0.0830727Z" fill="#332E2E"/>
<path d="M102.07 0.0830669C99.7458 0.341324 97.7013 1.30598 96.0454 2.92388C94.2419 4.67851 93.3091 6.60783 93.0448 9.12203C92.8582 10.8767 93.2469 12.8591 94.1175 14.5302C94.7783 15.8063 96.232 17.4242 97.4059 18.1914C100.002 19.8852 103.104 20.3714 105.996 19.5586C108.561 18.8294 110.66 17.2343 112.013 14.9936C113.599 12.3578 113.832 8.98531 112.611 6.15968C110.847 2.07316 106.532 -0.410658 102.07 0.0830669ZM105.156 2.5365C106.602 2.92388 107.784 3.6151 108.794 4.64812C109.79 5.65836 110.427 6.74455 110.792 8.05103C110.948 8.60552 111.097 8.91504 111.097 9.96896C111.01 11.3647 110.948 11.3704 110.792 11.9249C110.427 13.2313 109.79 14.3175 108.81 15.3202C107.768 16.3836 106.626 17.0444 105.125 17.447C104.449 17.6369 104.231 17.6597 103.158 17.6521C102.171 17.6521 101.829 17.6217 101.262 17.485C100.508 17.3027 99.3571 16.8013 98.7507 16.3988C97.1649 15.343 95.9832 13.7099 95.4935 11.8869C95.3147 11.2261 95.2389 10.9659 95.2098 9.96896C95.2389 9.0005 95.3147 8.74984 95.4935 8.08901C96.2787 5.16464 98.7041 2.95427 101.736 2.39218C102.661 2.22507 104.239 2.28584 105.156 2.5365Z" fill="#332E2E"/>
<path d="M120.26 10.042V20L121.333 19.9772L122.398 19.9544L122.437 11.5459L122.476 3.145L126.534 11.5459L130.584 19.9544L131.828 19.9772L133.064 19.9924L134.152 17.7365C134.751 16.4908 136.585 12.6701 138.226 9.25199L141.211 3.03106L141.234 11.5155L141.25 20L142.322 19.9772L143.387 19.9544V10.042V0.129482L141.825 0.106693L140.262 0.0915031L136.072 8.82663C133.764 13.6272 131.859 17.5618 131.836 17.5618C131.812 17.5618 129.9 13.6423 127.591 8.84182L123.386 0.129482L121.823 0.106693L120.26 0.0915031V10.042Z" fill="#332E2E"/>
<path d="M0 9.9889V19.9014H5.15403C10.8678 19.9014 11.1088 19.8862 12.5702 19.4076C16.7525 18.0404 19.5122 14.2957 19.5122 9.9889C19.5122 7.26202 18.5172 4.93772 16.5271 2.9932C15.2988 1.78547 14.2027 1.11704 12.5936 0.585342C11.1243 0.0916176 10.8989 0.0764256 5.15403 0.0764256H0V9.9889ZM10.9999 3.78316C13.2932 4.39842 14.9879 5.98593 15.7031 8.16591C15.9674 8.97866 16.0063 10.4522 15.7886 11.3561C15.2833 13.4298 13.7285 15.1464 11.6685 15.8756C10.5413 16.2782 9.98156 16.3314 6.70879 16.3314H3.73143V9.94332V3.55528L7.05861 3.58567C10.1837 3.61605 10.4169 3.63124 10.9999 3.78316Z" fill="#FFCB02"/>
</svg>
