<svg width="74" height="16" viewBox="0 0 74 16" fill="none" xmlns="http://www.w3.org/2000/svg">
<path fill-rule="evenodd" clip-rule="evenodd" d="M61.4803 11.8668L61.3125 11.7215C60.9054 11.3703 60.8334 10.7285 61.2049 10.3168L65.5636 5.27935C65.9109 4.86763 66.5457 4.79498 66.9527 5.17035L67.1205 5.31567C67.5275 5.66683 67.5995 6.30864 67.2284 6.72033L62.8694 11.7578C62.522 12.1695 61.9114 12.218 61.4803 11.8668Z" fill="#747373"/>
<path opacity="0.4" fill-rule="evenodd" clip-rule="evenodd" d="M64.9768 6.15156L64.8928 6.05469L64.2222 6.82969L64.2942 6.91444C65.4438 8.07695 64.9527 9.25155 64.6894 9.66327L64.7852 9.55427C64.9407 9.37265 65.1802 9.09414 65.4317 8.79139C65.6953 8.33123 66.0665 7.24141 64.9768 6.15156Z" fill="#747373"/>
<path opacity="0.4" fill-rule="evenodd" clip-rule="evenodd" d="M66.4147 7.66525L66.5945 7.45938C66.6066 7.43516 66.6305 7.41094 66.6425 7.38672C66.4506 7.60469 66.2466 7.83478 66.0547 8.06485C66.1986 7.90744 66.3187 7.77422 66.4147 7.66525Z" fill="#747373"/>
<path fill-rule="evenodd" clip-rule="evenodd" d="M67.2522 5.43791L62.8932 0.400438C62.5461 -0.011276 61.9114 -0.0839317 61.5044 0.291456L61.3366 0.436767C60.9295 0.787938 60.8575 1.42973 61.2287 1.84144L64.905 6.05548L64.9891 6.15236C66.0787 7.2543 65.7076 8.34412 65.4319 8.80428C65.6476 8.55 65.8631 8.29568 66.0667 8.06562C66.2583 7.83555 66.462 7.60546 66.6536 7.38749C66.8452 7.16952 67.0247 6.96367 67.1446 6.83048C67.5637 6.41876 67.6236 5.84961 67.2522 5.43791Z" fill="#747373"/>
<path fill-rule="evenodd" clip-rule="evenodd" d="M67.0125 11.8668L66.8447 11.7215C66.4377 11.3703 66.3657 10.7285 66.7371 10.3168L71.0958 5.27935C71.4432 4.86763 72.0779 4.79498 72.485 5.17035L72.6528 5.31567C73.0598 5.66683 73.1318 6.30864 72.7606 6.72033L68.4016 11.7578C68.0543 12.1695 67.4436 12.218 67.0125 11.8668Z" fill="#747373"/>
<path opacity="0.4" fill-rule="evenodd" clip-rule="evenodd" d="M70.5571 6.10371L70.4733 6.00684L69.8027 6.78184L69.8744 6.86662C71.0241 8.0291 70.533 9.2037 70.2697 9.61542L70.3655 9.50642C70.5213 9.32479 70.7608 9.04629 71.012 8.74354C71.2756 8.28338 71.6468 7.19356 70.5571 6.10371Z" fill="#747373"/>
<path opacity="0.4" fill-rule="evenodd" clip-rule="evenodd" d="M71.9348 7.66525L72.1149 7.45938C72.1267 7.43516 72.1508 7.41094 72.1629 7.38672C71.971 7.60469 71.767 7.83478 71.5751 8.06485C71.719 7.90744 71.8509 7.77422 71.9348 7.66525Z" fill="#747373"/>
<path fill-rule="evenodd" clip-rule="evenodd" d="M72.7724 5.43791L68.4134 0.400438C68.0664 -0.011276 67.4316 -0.0839317 67.0243 0.291456L66.8568 0.436767C66.4495 0.787938 66.3778 1.42973 66.7489 1.84144L70.4253 6.05548L70.5093 6.15236C71.599 7.2543 71.2275 8.34412 70.9522 8.80428C71.1679 8.55 71.3833 8.29568 71.5869 8.06562C71.7785 7.83555 71.9822 7.60546 72.1738 7.38749C72.3654 7.16952 72.545 6.96367 72.6646 6.83048C73.0839 6.41876 73.1436 5.84961 72.7724 5.43791Z" fill="#747373"/>
<path fill-rule="evenodd" clip-rule="evenodd" d="M0.263452 11.8189C0.0958008 11.6493 0 11.395 0 11.0802V1.11425C0 0.787299 0.0958008 0.533004 0.299378 0.327146C0.502954 0.121288 0.754432 0.0244141 1.07776 0.0244141C1.40109 0.0244141 1.68849 0.121288 1.88009 0.327146C2.08367 0.533004 2.17947 0.787299 2.17947 1.11425V10.3052H6.88566C7.55628 10.3052 7.90354 10.6079 7.90354 11.2013C7.90354 11.7947 7.55628 12.0974 6.88566 12.0974H1.01788C0.694555 12.0974 0.443078 12.0005 0.263452 11.8189Z" fill="#929496"/>
<path fill-rule="evenodd" clip-rule="evenodd" d="M9.60433 11.8919C9.40073 11.686 9.30493 11.4197 9.30493 11.0806V1.10253C9.30493 0.775579 9.40073 0.521287 9.60433 0.315426C9.80789 0.10957 10.0594 0.0126953 10.3827 0.0126953C10.706 0.0126953 10.9934 0.10957 11.185 0.315426C11.3886 0.521287 11.4844 0.775579 11.4844 1.10253V11.0806C11.4844 11.4075 11.3886 11.686 11.185 11.8919C10.9815 12.0978 10.718 12.1946 10.3827 12.1946C10.0713 12.1946 9.80789 12.0978 9.60433 11.8919Z" fill="#929496"/>
<path fill-rule="evenodd" clip-rule="evenodd" d="M23.9382 14.3616C23.9382 14.1557 23.8663 13.962 23.7466 13.7561L23.1478 12.848C22.8005 12.2788 22.3814 11.8913 21.8665 11.7218C22.8604 11.2738 23.6268 10.5714 24.1537 9.60265C24.6926 8.64602 24.956 7.47142 24.956 6.12729C24.956 4.88003 24.7285 3.79021 24.2735 2.8699C23.8184 1.9617 23.1718 1.24726 22.3215 0.738667C21.4833 0.254295 20.4774 0 19.3397 0C18.1781 0 17.1842 0.230076 16.334 0.738667C15.4957 1.24726 14.8371 1.9496 14.3821 2.8699C13.939 3.80231 13.6995 4.88003 13.6995 6.12729C13.6995 7.36245 13.927 8.45227 14.3821 9.38468C14.8371 10.2929 15.4838 11.0073 16.334 11.5159C17.1842 12.0003 18.1781 12.2546 19.3397 12.2546C19.7469 12.2546 20.0702 12.3273 20.3217 12.4484C20.5732 12.5695 20.7768 12.7632 20.9324 13.0296L21.9144 14.6765C22.0341 14.8581 22.1898 15.0034 22.3575 15.1003C22.5371 15.1972 22.7287 15.2456 22.9323 15.2456C23.1957 15.2456 23.4352 15.1487 23.6388 14.9913C23.8424 14.8339 23.9382 14.6159 23.9382 14.3616ZM22.7886 6.10307C22.7886 7.50776 22.4772 8.59758 21.8665 9.36046C21.2557 10.1233 20.4055 10.4988 19.3158 10.4988C18.226 10.4988 17.3639 10.1233 16.7531 9.36046C16.1424 8.59758 15.831 7.53198 15.831 6.10307C15.831 4.67418 16.1424 3.60855 16.7531 2.84568C17.3639 2.0949 18.2141 1.71951 19.3158 1.71951C20.4175 1.71951 21.2557 2.08279 21.8665 2.84568C22.4772 3.60855 22.7886 4.67418 22.7886 6.10307Z" fill="#929496"/>
<path fill-rule="evenodd" clip-rule="evenodd" d="M27.2914 11.0799C27.2914 11.419 27.3872 11.6854 27.5907 11.8912C27.7704 12.0971 28.0458 12.194 28.3691 12.2061C28.7043 12.2061 28.9679 12.1092 29.1716 11.9033C29.3749 11.7096 29.4707 11.4432 29.4707 11.092V7.435H32.4764C33.746 7.435 34.7278 7.12015 35.4345 6.46627C36.141 5.82446 36.5001 4.91626 36.5001 3.76588C36.5001 2.61551 36.141 1.70731 35.4345 1.07763C34.7278 0.423728 33.746 0.108887 32.4764 0.108887H28.3452C28.0219 0.108887 27.7704 0.205761 27.5788 0.375291C27.3872 0.556929 27.2914 0.811225 27.2914 1.13818V11.0799ZM34.4407 3.79007C34.4407 5.09789 33.686 5.7639 32.2011 5.7639L29.471 5.75177V1.81627H32.2011C33.686 1.81627 34.4407 2.48228 34.4407 3.79007Z" fill="#929496"/>
<path fill-rule="evenodd" clip-rule="evenodd" d="M47.6488 11.8913C47.8525 11.6976 47.9603 11.4796 47.9603 11.2253C47.9603 11.0679 47.9242 10.9347 47.8763 10.7773L43.2181 0.690229C43.1103 0.460153 42.9546 0.290624 42.7512 0.16953C42.5475 0.0605463 42.3318 0 42.0923 0C41.8528 0 41.6374 0.0484372 41.4338 0.16953C41.2184 0.290624 41.0626 0.472262 40.9668 0.690229L36.3204 10.7773C36.2605 10.9226 36.2246 11.08 36.2246 11.2253C36.2246 11.4917 36.3204 11.7218 36.5361 11.8913C36.7395 12.0609 36.991 12.1577 37.2426 12.1577C37.4342 12.1577 37.6017 12.1093 37.7574 12.0124C37.9132 11.9155 38.0328 11.7702 38.1286 11.5644L39.1466 9.28781H45.0384L46.0564 11.5644C46.1401 11.7581 46.2718 11.9155 46.4275 12.0124C46.5833 12.1093 46.7628 12.1577 46.9303 12.1577C47.2057 12.1577 47.4452 12.0609 47.6488 11.8913ZM44.3199 7.59252H39.8771L42.0923 2.55506L44.3199 7.59252Z" fill="#929496"/>
<path fill-rule="evenodd" clip-rule="evenodd" d="M56.3427 0.0248046C56.5939 0.0248046 56.8217 0.121679 57.025 0.327536C57.2287 0.533396 57.3245 0.751363 57.3245 1.04198C57.3245 1.25995 57.2407 1.49003 57.0729 1.69588L53.2529 6.40641V11.1169C53.2529 11.4681 53.1571 11.7345 52.9535 11.9404C52.7501 12.1462 52.4986 12.231 52.1871 12.231C51.8638 12.231 51.5884 12.1341 51.3848 11.9404C51.1814 11.7466 51.0856 11.4802 51.0856 11.1169V6.40641L47.2894 1.68378C47.1216 1.47792 47.0378 1.25995 47.0378 1.02987C47.0378 0.763473 47.1336 0.521287 47.3373 0.315426C47.5409 0.10957 47.7804 0.0126953 48.02 0.0126953C48.3074 0.0126953 48.5348 0.133788 48.7385 0.388083L52.1753 4.69899L55.6001 0.388083C55.8037 0.145897 56.0553 0.0248046 56.3427 0.0248046Z" fill="#929496"/>
</svg>
