<svg width="113" height="16" viewBox="0 0 113 16" fill="none" xmlns="http://www.w3.org/2000/svg">
<path d="M24.2133 0.0728855C24.1888 0.115541 22.6736 3.70464 20.8589 8.04324L17.5474 15.9344L19.0809 15.9527C19.9302 15.9588 20.6451 15.9588 20.6817 15.9405C20.7184 15.9283 21.0667 15.1605 21.4516 14.2343L22.1481 12.5525L26.3334 12.5707L30.5187 12.5829L31.203 14.2587L31.8873 15.9344L33.482 15.9527L35.0828 15.9648L35.0461 15.8308C35.0278 15.7516 33.5675 12.1686 31.8079 7.86043L28.6063 0.0302315L26.4373 0.0119505C24.7387 -0.000236511 24.256 0.0180445 24.2133 0.0728855ZM27.922 6.23346L29.425 9.90177L26.3701 9.92005C24.6959 9.92614 23.309 9.92005 23.2968 9.90786C23.2601 9.8774 26.3578 2.50421 26.3945 2.54077C26.4128 2.55296 27.0971 4.21649 27.922 6.23346Z" fill="#332E2E"/>
<path d="M35.6946 0.255691C35.8045 0.395843 37.3748 2.37624 39.1772 4.65523L42.4582 8.80493L42.4643 12.3818V15.9648H43.9918H45.5193V12.3818L45.5254 8.80493L48.9164 4.50898C50.7799 2.14469 52.3318 0.164288 52.3685 0.103353C52.4235 0.00585556 52.3196 -0.000237465 50.5722 -0.000237465H48.7209L46.3747 2.9795C45.0794 4.62476 44.0101 5.95315 43.9918 5.93487C43.9735 5.91659 42.9165 4.58211 41.6334 2.96732L39.3116 0.0302296L37.3992 0.0119495L35.4868 -0.000237465L35.6946 0.255691Z" fill="#332E2E"/>
<path d="M61.7099 0.0678968C59.883 0.275077 58.2761 1.04896 56.9747 2.34688C55.5572 3.75449 54.824 5.30225 54.6163 7.31921C54.4697 8.72682 54.7752 10.3172 55.4595 11.6578C55.9788 12.6815 57.1214 13.9795 58.044 14.5949C60.0847 15.9538 62.5225 16.3437 64.7954 15.6917C66.4573 15.2103 67.8565 14.2719 68.889 12.9496C69.2312 12.5109 69.5917 11.9564 69.5917 11.8711C69.5917 11.8406 68.0948 10.9692 68.0398 10.9692C68.0275 10.9692 67.8992 11.152 67.7526 11.3775C67.606 11.6091 67.2699 12.0173 67.0072 12.2915C66.1885 13.1446 65.2903 13.6748 64.1111 13.9977C63.5795 14.1501 63.4085 14.1684 62.5653 14.1623C61.7893 14.1623 61.5205 14.1379 61.0745 14.0282C60.4818 13.882 59.5776 13.4798 59.101 13.1568C57.8546 12.3098 56.9259 10.9997 56.5409 9.53726C56.4004 9.00712 56.376 8.80603 56.376 8.01387C56.376 7.22171 56.4004 7.02063 56.5409 6.49049C57.0114 4.71727 58.1967 3.2731 59.8464 2.46266C60.8179 1.98736 61.3861 1.86549 62.5653 1.86549C63.4085 1.8594 63.5795 1.87768 64.105 2.02392C64.8565 2.2311 65.382 2.47484 66.0113 2.88921C66.5795 3.26701 67.3677 4.05917 67.7282 4.60758L67.9726 4.98538L68.7791 4.55274L69.5856 4.11401L69.4267 3.8398C69.3412 3.68746 69.0968 3.34622 68.889 3.07811C67.2027 0.914899 64.4349 -0.242874 61.7099 0.0678968Z" fill="#332E2E"/>
<path d="M80.2228 0.067894C78.396 0.275074 76.7891 1.04895 75.4877 2.34688C74.0702 3.75449 73.337 5.30225 73.1292 7.31921C72.9826 8.72682 73.2881 10.3172 73.9724 11.6578C74.4918 12.6815 75.6343 13.9795 76.5569 14.5949C78.5976 15.9538 81.0355 16.3437 83.3083 15.6917C85.3246 15.1068 86.9743 13.8271 88.0374 12.0295C89.2838 9.91506 89.4671 7.20953 88.5079 4.94273C87.1209 1.6644 83.7299 -0.328186 80.2228 0.067894ZM82.6485 2.03611C83.7849 2.34688 84.7136 2.90139 85.5079 3.73011C86.29 4.54056 86.791 5.41193 87.0782 6.46002C87.2004 6.90485 87.318 7.15316 87.318 7.99864C87.2492 9.11833 87.2004 9.1229 87.0782 9.56773C86.791 10.6158 86.29 11.4872 85.5201 12.2915C84.7014 13.1446 83.8032 13.6748 82.624 13.9977C82.0925 14.1501 81.9214 14.1684 81.0782 14.1623C80.3023 14.1623 80.0334 14.1379 79.5874 14.0282C78.9948 13.882 78.0905 13.4798 77.6139 13.1568C76.3675 12.3098 75.4388 10.9997 75.0539 9.53726C74.9133 9.00712 74.8538 8.79842 74.8309 7.99864C74.8538 7.22171 74.9133 7.02063 75.0539 6.49049C75.671 4.14447 77.5773 2.37125 79.9601 1.92033C80.6872 1.78627 81.9275 1.83502 82.6485 2.03611Z" fill="#332E2E"/>
<path d="M94.5195 7.98256V15.9712L95.3627 15.9529L96.1998 15.9346L96.2303 9.18908L96.2609 2.44962L99.4502 9.18908L102.633 15.9346L103.611 15.9529L104.583 15.9651L105.438 14.1553C105.908 13.156 107.35 10.0909 108.64 7.34883L110.986 2.35822L111.004 9.1647L111.016 15.9712L111.859 15.9529L112.696 15.9346V7.98256V0.0304852L111.468 0.0122051L110.24 1.71661e-05L106.947 7.00759C105.132 10.8587 103.636 14.0152 103.617 14.0152C103.599 14.0152 102.096 10.8709 100.281 7.01978L96.9757 0.0304852L95.7476 0.0122051L94.5195 1.71661e-05V7.98256Z" fill="#332E2E"/>
<path d="M0 8.01277V15.9648H4.05087C8.54164 15.9648 8.73105 15.9527 9.87971 15.5688C13.1668 14.4719 15.3359 11.4678 15.3359 8.01277C15.3359 5.82519 14.5538 3.96057 12.9897 2.40062C12.0243 1.43175 11.1628 0.895515 9.89804 0.468967C8.74327 0.0728874 8.56608 0.0606995 4.05087 0.0606995H0V8.01277ZM8.64551 3.03435C10.4479 3.52793 11.7799 4.80148 12.342 6.55032C12.5497 7.20233 12.5803 8.38448 12.4092 9.10961C12.0121 10.7731 10.7901 12.1503 9.17096 12.7353C8.28503 13.0582 7.84512 13.1009 5.27285 13.1009H2.93275V7.97621V2.85154L5.54779 2.87592C8.00397 2.90029 8.18727 2.91248 8.64551 3.03435Z" fill="#332E2E"/>
</svg>
