<svg width="25" height="15" viewBox="0 0 25 15" fill="none" xmlns="http://www.w3.org/2000/svg">
<path d="M15.5709 1.56445H9.22815V13.0751H15.5709V1.56445Z" fill="#BEC1C4"/>
<path d="M9.63028 7.32044C9.62928 6.21188 9.87803 5.11762 10.3577 4.1205C10.8374 3.12338 11.5354 2.24953 12.3989 1.56511C11.3296 0.716275 10.0453 0.188395 8.6929 0.0418091C7.3405 -0.104777 5.97455 0.135839 4.75117 0.736168C3.52779 1.3365 2.49634 2.27231 1.77471 3.43665C1.05309 4.60098 0.67041 5.94685 0.67041 7.32044C0.67041 8.69403 1.05309 10.0399 1.77471 11.2042C2.49634 12.3686 3.52779 13.3044 4.75117 13.9047C5.97455 14.505 7.3405 14.7457 8.6929 14.5991C10.0453 14.4525 11.3296 13.9246 12.3989 13.0758C11.5354 12.3913 10.8374 11.5175 10.3577 10.5204C9.87804 9.52326 9.62929 8.429 9.63028 7.32044Z" fill="#747373"/>
<path d="M24.1275 7.32044C24.1275 8.69401 23.7449 10.0399 23.0233 11.2042C22.3017 12.3685 21.2703 13.3044 20.0469 13.9047C18.8236 14.505 17.4576 14.7457 16.1053 14.5991C14.7529 14.4525 13.4686 13.9246 12.3993 13.0758C13.2621 12.3907 13.9595 11.5167 14.4391 10.5197C14.9187 9.52274 15.1679 8.42882 15.1679 7.32044C15.1679 6.21206 14.9187 5.11814 14.4391 4.12117C13.9595 3.12421 13.2621 2.25022 12.3993 1.56511C13.4686 0.716272 14.7529 0.188392 16.1053 0.0418071C17.4576 -0.104777 18.8236 0.13585 20.0469 0.736184C21.2703 1.33652 22.3017 2.27233 23.0233 3.43667C23.7449 4.601 24.1275 5.94687 24.1275 7.32044Z" fill="#929496"/>
<path d="M23.4359 11.8574V11.6213H23.5302V11.5732H23.2902V11.6213H23.3845V11.8574H23.4359ZM23.902 11.8574V11.5728H23.8284L23.7438 11.7685L23.6591 11.5728H23.5855V11.8574H23.6374V11.6427L23.7168 11.8278H23.7707L23.85 11.6422V11.8574H23.902Z" fill="#636466"/>
</svg>
