<svg width="28" height="28" viewBox="0 0 28 28" fill="none" xmlns="http://www.w3.org/2000/svg">
<g clip-path="url(#clip0_6992_3189)">
<path d="M11.4488 20.3241C11.0007 20.3241 11.0769 20.1551 10.9223 19.7282L9.60474 15.3922L19.7471 9.375" fill="#888787"/>
<path d="M11.4487 20.3237C11.7945 20.3237 11.9472 20.1657 12.1403 19.9779L13.9843 18.1849L11.6842 16.7979" fill="#838282"/>
<path d="M11.6837 16.7985L17.2574 20.9163C17.8936 21.2673 18.3525 21.0857 18.5111 20.3259L20.7799 9.63464C21.0122 8.70338 20.4249 8.28079 19.8163 8.55709L6.49391 13.694C5.58448 14.0589 5.59002 14.5663 6.32826 14.7922L9.74715 15.8593L17.6619 10.8659C18.0356 10.6393 18.3786 10.7611 18.0971 11.0109L11.6837 16.7985Z" fill="#747373"/>
<path d="M13.8749 27.2059C6.51263 27.2059 0.544434 21.2377 0.544434 13.8754C0.544434 6.51312 6.51263 0.544922 13.8749 0.544922C21.2372 0.544922 27.2054 6.51312 27.2054 13.8754C27.2054 21.2377 21.2372 27.2059 13.8749 27.2059Z" stroke="#747373"/>
</g>
<defs>
<clipPath id="clip0_6992_3189">
<rect width="28" height="28" fill="white"/>
</clipPath>
</defs>
</svg>
