<svg width="28" height="28" viewBox="0 0 28 28" fill="none" xmlns="http://www.w3.org/2000/svg">
<g clip-path="url(#clip0_6992_3202)">
<path d="M11.4228 19.9929C17.066 19.9929 20.1519 15.3177 20.1519 11.2638C20.1519 11.1308 20.1493 10.9987 20.1431 10.8671C20.7421 10.4342 21.2628 9.89382 21.6737 9.27856C21.1239 9.5228 20.5324 9.68729 19.9118 9.76157C20.5452 9.38174 21.0315 8.78077 21.2608 8.06448C20.6678 8.41589 20.0115 8.6716 19.3128 8.80918C18.7529 8.21286 17.9557 7.83984 17.0734 7.83984C15.379 7.83984 14.0049 9.21393 14.0049 10.9077C14.0049 11.1484 14.0319 11.3826 14.0845 11.6072C11.5347 11.4789 9.27374 10.258 7.76075 8.40177C7.49707 8.85504 7.3452 9.38191 7.3452 9.94383C7.3452 11.0082 7.88686 11.9478 8.71048 12.4976C8.2072 12.4821 7.7345 12.3439 7.32094 12.1138C7.32028 12.1266 7.32028 12.1394 7.32028 12.1528C7.32028 13.6389 8.37801 14.8792 9.78167 15.1605C9.52396 15.2306 9.2528 15.2684 8.97283 15.2684C8.77511 15.2684 8.58287 15.2488 8.39612 15.213C8.78674 16.4319 9.91924 17.3189 11.2623 17.3439C10.212 18.1669 8.88926 18.6572 7.45187 18.6572C7.20431 18.6572 6.96006 18.6431 6.71997 18.6147C8.07777 19.485 9.68995 19.9929 11.4228 19.9929Z" fill="#747373"/>
<path d="M13.8749 27.2059C6.51263 27.2059 0.544434 21.2377 0.544434 13.8754C0.544434 6.51312 6.51263 0.544922 13.8749 0.544922C21.2372 0.544922 27.2054 6.51312 27.2054 13.8754C27.2054 21.2377 21.2372 27.2059 13.8749 27.2059Z" stroke="#747373"/>
</g>
<defs>
<clipPath id="clip0_6992_3202">
<rect width="28" height="28" fill="white"/>
</clipPath>
</defs>
</svg>
