<svg width="28" height="28" viewBox="0 0 28 28" fill="none" xmlns="http://www.w3.org/2000/svg">
<g clip-path="url(#clip0_6992_3176)">
<path d="M13.9843 27.3152C6.62201 27.3152 0.653809 21.347 0.653809 13.9848C0.653809 6.62249 6.62201 0.654297 13.9843 0.654297C21.3465 0.654297 27.3147 6.62249 27.3147 13.9848C27.3147 21.347 21.3465 27.3152 13.9843 27.3152Z" stroke="#747373"/>
<path d="M20.5038 7.34741C20.0636 6.93644 18.2847 5.63008 14.3222 5.61246C14.3222 5.61246 9.64942 5.32753 7.37161 7.44119C6.10353 8.72426 5.65742 10.6014 5.61047 12.9289C5.56353 15.2564 5.50241 19.6181 9.65886 20.8008H9.663L9.66005 22.6054C9.66005 22.6054 9.63347 23.3359 10.1091 23.4849C10.6842 23.6656 11.022 23.1104 11.5712 22.5119C11.8726 22.1833 12.2889 21.7007 12.6025 21.3315C15.4451 21.5735 17.6311 21.0203 17.8794 20.9388C18.4533 20.7506 21.701 20.3295 22.2292 15.9681C22.7745 11.4726 21.9655 8.62898 20.5038 7.34741ZM20.9856 15.6455C20.5398 19.2872 17.9056 19.516 17.42 19.6737C17.2133 19.7409 15.2933 20.2241 12.8788 20.0646C12.8788 20.0646 11.0796 22.2604 10.5177 22.8311C10.43 22.9204 10.327 22.9566 10.2579 22.9387C10.1611 22.9148 10.1345 22.7989 10.1357 22.6295C10.1372 22.3876 10.151 19.6306 10.151 19.6306C10.149 19.6306 10.151 19.6306 10.151 19.6306C6.63527 18.6433 6.84017 14.9308 6.88002 12.9868C6.91988 11.0428 7.28097 9.45031 8.35329 8.3793C10.2801 6.61388 14.249 6.87761 14.249 6.87761C17.6009 6.89254 19.2071 7.91338 19.5794 8.25565C20.8161 9.32667 21.4459 11.8898 20.9853 15.6446V15.6455H20.9856Z" fill="#747373"/>
<path d="M16.3777 14.5602C16.1546 14.5602 15.9687 14.3892 15.9576 14.17C15.8866 12.7742 15.2135 12.0917 13.839 12.0213C13.6065 12.0094 13.4283 11.8162 13.4405 11.5894C13.4527 11.3626 13.6497 11.1884 13.8834 11.2008C15.6979 11.2934 16.7062 12.306 16.7994 14.1288C16.8111 14.3556 16.6318 14.5483 16.3999 14.5597C16.3915 14.5602 16.3849 14.5602 16.3777 14.5602Z" fill="#747373"/>
<path d="M17.6127 14.5601C17.6103 14.5601 17.6083 14.5601 17.6059 14.5601C17.4368 14.5566 17.3024 14.4224 17.3065 14.2604C17.3291 13.2574 17.0301 12.445 16.3925 11.7772C15.7553 11.1109 14.8825 10.7475 13.724 10.6663C13.5553 10.6543 13.4286 10.5139 13.4407 10.3523C13.4533 10.1907 13.6005 10.0692 13.7684 10.0808C15.0718 10.1721 16.1064 10.6098 16.844 11.3808C17.5833 12.1546 17.9448 13.1278 17.9186 14.2732C17.9154 14.4329 17.779 14.5601 17.6127 14.5601Z" fill="#747373"/>
<path d="M18.7815 14.5596C18.6393 14.5596 18.5237 14.4495 18.5227 14.3128C18.5108 12.8115 18.0423 11.617 17.1299 10.7622C16.2157 9.90564 15.0609 9.46673 13.697 9.45755C13.5542 9.45657 13.4389 9.34446 13.4399 9.20712C13.441 9.07043 13.5566 8.95996 13.6987 8.95996C13.6994 8.95996 13.7001 8.95996 13.7004 8.95996C15.2027 8.97012 16.4779 9.45657 17.4909 10.4059C18.5056 11.3571 19.027 12.6702 19.0399 14.3092C19.041 14.4465 18.9261 14.559 18.7832 14.56C18.7828 14.5596 18.7822 14.5596 18.7815 14.5596Z" fill="#747373"/>
<path d="M15.0228 16.2792C15.0228 16.2792 15.3791 16.3093 15.5708 16.0729L15.9448 15.6024C16.1252 15.369 16.5606 15.2204 16.9871 15.4578C17.3067 15.6401 17.6169 15.8381 17.9165 16.0512C18.1993 16.2592 18.7787 16.7427 18.7807 16.7427C19.0569 16.9758 19.1203 17.3177 18.9327 17.6787C18.9327 17.6807 18.931 17.6844 18.931 17.6864C18.724 18.045 18.4611 18.3686 18.1526 18.6447C18.1489 18.6464 18.1489 18.6484 18.1456 18.6501C17.8774 18.8742 17.6139 19.0017 17.3551 19.0321C17.317 19.0388 17.2783 19.0411 17.2396 19.0394C17.1253 19.0404 17.0118 19.0231 16.9033 18.9877L16.8949 18.9753C16.4962 18.8628 15.8306 18.5816 14.7219 17.9699C14.0804 17.6203 13.4696 17.2169 12.8962 16.7641C12.6087 16.5374 12.3345 16.2943 12.0751 16.0358L12.0473 16.0081L12.0196 15.9804L11.9919 15.9527C11.9825 15.9436 11.9735 15.9343 11.9642 15.9249C11.706 15.6655 11.4629 15.3913 11.2358 15.1038C10.783 14.5305 10.3796 13.9197 10.03 13.2786C9.4185 12.1696 9.13698 11.5048 9.02444 11.1054L9.01208 11.0971C8.97668 10.9885 8.95932 10.875 8.96065 10.7608C8.95865 10.7221 8.96099 10.6833 8.96767 10.6453C9.00006 10.3868 9.12763 10.1234 9.35037 9.85421C9.35204 9.85087 9.35405 9.85087 9.35572 9.8472C9.63189 9.53865 9.95549 9.27585 10.3141 9.06915C10.3158 9.06915 10.3195 9.06748 10.3218 9.06748C10.6825 8.87949 11.0248 8.94326 11.2575 9.21775C11.2592 9.21942 11.7421 9.79878 11.9492 10.0819C12.1625 10.3818 12.3606 10.6924 12.5426 11.0123C12.78 11.4383 12.6314 11.8744 12.398 12.0544L11.9274 12.4284C11.69 12.6201 11.7211 12.9764 11.7211 12.9764C11.7211 12.9764 12.4187 15.6147 15.0228 16.2792Z" fill="#747373"/>
</g>
<defs>
<clipPath id="clip0_6992_3176">
<rect width="28" height="28" fill="white"/>
</clipPath>
</defs>
</svg>
