<svg width="45" height="15" viewBox="0 0 45 15" fill="none" xmlns="http://www.w3.org/2000/svg">
<path fill-rule="evenodd" clip-rule="evenodd" d="M15.7662 14.4022L17.9906 0.23871H21.4755L19.2511 14.4022H15.7662ZM32.0786 0.55699C31.3799 0.310635 30.281 0 28.8902 0C25.4186 0 22.9594 1.92497 22.9585 4.69463C22.9167 6.7196 24.6938 7.85677 25.9985 8.51399C27.4105 9.22897 27.8732 9.67345 27.8522 10.2645C27.8582 11.2444 26.7687 11.6797 25.7761 11.6968C24.3379 11.6797 23.5863 11.4654 22.4394 10.9011L21.9945 10.742L21.4755 13.8452C22.2995 14.28 23.827 14.6229 25.4053 14.6409C29.1252 14.6409 31.5377 12.7394 31.5595 9.78711C31.5788 8.17956 30.6372 6.95399 28.5936 5.96775C27.363 5.28477 26.6052 4.84908 26.5917 4.21721C26.6146 3.59377 27.2541 2.96286 28.6678 2.94409C29.794 2.94359 30.6307 3.21946 31.263 3.50108L31.6337 3.66022L32.0786 0.55699ZM41.1245 0.23871H38.4552C37.5843 0.23871 36.9509 0.489461 36.6016 1.43226L31.3371 14.4022H35.0445C35.0445 14.4022 35.6503 12.6549 35.7859 12.2538C36.192 12.2714 39.7952 12.2787 40.3089 12.2538C40.4153 12.7733 40.7394 14.4022 40.7538 14.4022H44.0163L41.1245 0.23871ZM36.824 9.38926C37.1201 8.57195 38.2472 5.41486 38.2328 5.41076C38.2263 5.45224 38.5416 4.59104 38.7518 4.05807L38.9743 5.25162C38.9632 5.28445 39.6487 8.67842 39.7899 9.38926H36.824ZM12.8003 0.23871L9.31536 9.94625L8.94462 7.957C8.29731 5.67973 6.29293 3.22427 4.0509 1.98925L7.23924 14.4022H10.9466L16.5076 0.23871H12.8003Z" fill="#929496"/>
<path fill-rule="evenodd" clip-rule="evenodd" d="M6.05263 5.05447e-05H0.194997L0.12085 0.318331C4.6779 1.53029 7.69295 4.48491 8.94437 8.03662L7.68387 1.27317C7.45222 0.310375 6.81415 0.0327854 6.05263 5.05447e-05Z" fill="#929496"/>
</svg>
